<?xml version="1.0" encoding="UTF-8"?>
<svg version="1.1" xmlns="http://www.w3.org/2000/svg" width="128" height="128">
<path d="M0 0 C0.66 0 1.32 0 2 0 C2.556875 0.80566406 3.11375 1.61132812 3.6875 2.44140625 C6.74165948 5.82058608 8.52181265 5.67160763 13 5.9375 C22.69970337 6.85323518 30.59444801 10.0911869 37.5 17.1875 C43.70688606 24.93317656 45.7398591 33.08690505 45.37890625 42.92578125 C44.36316056 51.16693446 40.03874403 57.44383379 34 63 C29.03125 66 29.03125 66 26 66 C27.8503577 68.64851545 29.70559314 71.29357252 31.5625 73.9375 C32.10737061 74.71496582 32.65224121 75.49243164 33.21362305 76.29345703 C36.62557145 81.13527551 40.13743659 85.8298209 43.98828125 90.3359375 C44.32214844 90.88507813 44.65601562 91.43421875 45 92 C44.505 93.485 44.505 93.485 44 95 C25.570739 96.44832424 25.570739 96.44832424 20.08935547 92.68994141 C16.90125555 89.2760813 14.88716783 85.25810564 12.95849609 81.03662109 C12.03229621 79.06862327 10.99816622 77.24846942 9.86328125 75.39453125 C3.54245612 64.80187145 3.54245612 64.80187145 5 58 C10.13159763 50.94405326 18.97912393 48.45082324 27 46 C26.47731534 43.23723823 25.89130413 40.6739124 25 38 C23.6931268 37.28284963 22.35268988 36.62646015 21 36 C19.17492626 34.72616136 17.36433167 33.43150743 15.5625 32.125 C7.26183433 26.24541261 -1.62012436 21.37674 -10.48535156 16.41162109 C-14.10652532 14.37884181 -17.70984409 12.31535854 -21.3125 10.25 C-22.42238281 9.61578125 -23.53226563 8.9815625 -24.67578125 8.328125 C-25.44277344 7.88984375 -26.20976562 7.4515625 -27 7 C-27 6.67 -27 6.34 -27 6 C-19.08 6 -11.16 6 -3 6 C-3 8.64 -3 11.28 -3 14 C-1.02 14.99 0.96 15.98 3 17 C2.7834375 16.19175781 2.566875 15.38351563 2.34375 14.55078125 C2.0653125 13.48214844 1.786875 12.41351563 1.5 11.3125 C1.2215625 10.25675781 0.943125 9.20101563 0.65625 8.11328125 C0.0608285 5.28857328 -0.12786492 2.87163292 0 0 Z " fill="#FEFEFE" transform="translate(55,17)"/>
<path d="M0 0 C2.97638811 1.48819406 4.76784159 2.48416509 7.1640625 4.56640625 C7.72867188 5.05173828 8.29328125 5.53707031 8.875 6.03710938 C9.4525 6.54048828 10.03 7.04386719 10.625 7.5625 C14.55820931 11.14573678 14.55820931 11.14573678 19 14 C19 37.43 19 60.86 19 85 C6 86 6 86 0 85 C0 56.95 0 28.9 0 0 Z " fill="#FEFEFE" transform="translate(28,26)"/>
<path d="M0 0 C1.98 0.495 1.98 0.495 4 1 C4.33 2.32 4.66 3.64 5 5 C2.5625 4.625 2.5625 4.625 0 4 C-0.33 3.34 -0.66 2.68 -1 2 C-0.67 1.34 -0.34 0.68 0 0 Z " fill="#FEFEFE" transform="translate(67,50)"/>
</svg>
